v 0.000000 -0.500000 -1.000000
v 0.000000 0.500000 -1.000000
v 0.951057 -0.500000 -0.309017
v 0.951057 0.500000 -0.309017
v 0.587785 -0.500000 0.809017
v 0.587785 0.500000 0.809017
v -0.587785 -0.500000 0.809017
v -0.587785 0.500000 0.809017
v -0.951056 -0.500000 -0.309017
v -0.951056 0.500000 -0.309017
vt 1.000000 1.000000
vt 0.800000 0.500000
vt 1.000000 0.500000
vt 0.800000 1.000000
vt 0.600000 0.500000
vt 0.600000 1.000000
vt 0.400000 0.500000
vt 0.021746 0.324164
vt 0.108932 0.055836
vt 0.391068 0.055836
vt 0.400000 1.000000
vt 0.200000 0.500000
vt 0.200000 1.000000
vt 0.000000 0.500000
vt 0.978254 0.324164
vt 0.608932 0.055836
vt 0.521746 0.324164
vt 0.478254 0.324164
vt 0.250000 0.490000
vt 0.000000 1.000000
vt 0.750000 0.490000
vt 0.891068 0.055836
vn 0.0000 0.5957 -0.8032
vn 0.7639 -0.5957 -0.2482
vn 0.0000 -0.5957 -0.8032
vn 0.7639 0.5957 -0.2482
vn 0.4721 -0.5957 0.6498
vn 0.4721 0.5957 0.6498
vn -0.4721 -0.5957 0.6498
vn -0.7639 0.5957 -0.2482
vn -0.4721 0.5957 0.6498
vn -0.7639 -0.5957 -0.2482
f 2/1/1 3/2/2 1/3/3
f 4/4/4 5/5/5 3/2/2
f 6/6/6 7/7/7 5/5/5
f 10/8/8 8/9/9 6/10/6
f 8/11/9 9/12/10 7/7/7
f 10/13/8 1/14/3 9/12/10
f 3/15/2 7/16/7 9/17/10
f 2/1/1 4/4/4 3/2/2
f 4/4/4 6/6/6 5/5/5
f 6/6/6 8/11/9 7/7/7
f 6/10/6 4/18/4 2/19/1
f 2/19/1 10/8/8 6/10/6
f 8/11/9 10/13/8 9/12/10
f 10/13/8 2/20/1 1/14/3
f 9/17/10 1/21/3 3/15/2
f 3/15/2 5/22/5 7/16/7
